<?xml version="1.0" standalone="no"?>
<!DOCTYPE svg PUBLIC "-//W3C//DTD SVG 20010904//EN"
 "http://www.w3.org/TR/2001/REC-SVG-20010904/DTD/svg10.dtd">
<svg version="1.0" xmlns="http://www.w3.org/2000/svg"
 width="1600.000000pt" height="1600.000000pt" viewBox="0 0 1600.000000 1600.000000"
 preserveAspectRatio="xMidYMid meet">
<metadata>
Created by potrace 1.11, written by Peter Selinger 2001-2013
</metadata>
<g transform="translate(0.000000,1600.000000) scale(0.100000,-0.100000)"
fill="#000000" stroke="none">
<path d="M8680 10420 c-188 -16 -335 -75 -434 -173 -74 -74 -118 -146 -127
-207 -30 -202 -32 -208 -95 -315 -19 -33 -50 -92 -68 -131 -19 -39 -38 -74
-43 -77 -9 -6 -33 41 -64 123 -8 22 -13 88 -14 180 0 112 -5 156 -19 195 -25
72 -71 139 -130 191 -48 42 -201 128 -249 139 -153 36 -213 44 -334 45 -73 0
-133 -3 -133 -8 0 -4 32 -39 71 -77 39 -39 81 -86 93 -105 22 -35 51 -121 80
-237 24 -99 69 -175 148 -255 77 -78 136 -117 212 -143 77 -26 116 -23 170 13
26 18 51 30 56 27 11 -7 42 -112 58 -195 29 -147 34 -184 39 -306 5 -120 -3
-291 -13 -281 -5 5 -43 103 -49 127 -2 8 -17 52 -33 97 -62 170 -101 208 -206
200 -77 -7 -110 -37 -147 -132 -16 -40 -139 -396 -144 -415 -2 -8 -13 -42 -25
-75 -12 -33 -23 -67 -25 -75 -4 -15 -76 -220 -88 -250 -7 -18 -65 -194 -131
-402 -26 -81 -45 -156 -42 -166 20 -63 107 -88 178 -53 l43 22 81 247 81 247
230 3 231 2 16 -71 c26 -114 103 -249 180 -315 239 -206 658 -209 973 -8 75
48 86 90 81 312 -3 182 -12 214 -65 249 -24 16 -54 18 -255 18 l-228 0 -27
-28 c-23 -23 -28 -36 -28 -77 0 -84 35 -99 228 -100 l117 0 0 -108 c0 -125 6
-118 -135 -168 -70 -25 -94 -28 -190 -28 -98 1 -117 4 -170 28 -153 69 -235
226 -235 452 0 298 148 474 399 474 78 0 95 -3 150 -31 62 -31 84 -54 149
-156 33 -51 69 -73 119 -73 75 0 122 50 123 130 0 80 -47 157 -140 231 -45 35
-126 77 -163 85 -11 2 -36 9 -56 15 -52 17 -302 15 -371 -4 -134 -36 -236 -93
-309 -172 l-41 -45 0 168 c0 102 -6 211 -16 280 -16 112 -16 113 6 175 51 139
127 296 146 304 9 3 21 -3 30 -16 8 -11 28 -28 44 -36 34 -18 151 -20 201 -4
92 30 235 123 297 194 17 19 62 96 99 172 77 155 125 212 236 282 37 24 67 46
67 50 0 13 -134 40 -220 44 -47 2 -123 1 -170 -3z m-980 -1750 c29 -91 58
-184 66 -208 8 -23 14 -45 14 -47 0 -3 -76 -5 -170 -5 -93 0 -170 1 -170 3 0
2 11 35 24 73 13 38 29 87 35 109 22 77 92 300 102 325 12 29 8 39 99 -250z"/>
<path d="M5965 7503 c3 -12 7 -30 9 -40 8 -40 59 -209 66 -218 4 -5 10 -23 14
-40 4 -16 18 -54 32 -83 13 -29 24 -55 24 -58 0 -10 92 -189 133 -259 163
-277 392 -526 647 -707 443 -312 996 -435 1500 -332 105 21 199 44 224 54 11
5 55 21 96 36 166 59 379 178 546 303 77 58 317 298 381 381 58 75 163 226
163 236 0 3 8 18 19 32 58 82 181 361 227 516 48 161 52 176 43 170 -5 -3 -9
-10 -9 -15 0 -20 -101 -221 -161 -321 -182 -302 -467 -592 -762 -776 -105 -66
-353 -186 -402 -196 -5 -1 -23 -7 -40 -13 -78 -31 -249 -71 -416 -98 -128 -20
-405 -20 -530 0 -145 24 -243 43 -272 54 -15 6 -27 9 -27 6 0 -2 -57 16 -127
41 -377 131 -712 362 -965 663 -160 189 -239 311 -339 521 -74 156 -80 167
-74 143z"/>
<path d="M6695 7511 c-76 -32 -85 -149 -15 -189 l30 -17 0 -123 0 -123 -35
-33 c-29 -28 -35 -40 -35 -74 0 -62 34 -97 95 -97 61 0 95 35 95 97 0 33 -6
46 -35 72 l-35 32 0 127 c0 96 3 127 13 127 7 0 83 -71 169 -157 151 -153 156
-159 156 -199 -1 -55 16 -81 60 -95 53 -15 103 6 126 54 15 32 15 40 2 71 -8
19 -26 42 -40 51 -26 17 -26 18 -26 156 0 114 3 139 14 139 26 0 56 50 56 94
0 68 -45 102 -121 94 -46 -6 -83 -58 -75 -107 7 -45 32 -81 56 -81 19 0 20 -7
20 -139 0 -92 -4 -142 -11 -147 -7 -4 -78 60 -170 152 -157 156 -160 160 -154
194 8 49 -8 86 -47 110 -35 21 -60 24 -93 11z"/>
<path d="M9073 7200 c-48 -21 -59 -54 -22 -63 20 -5 21 -11 17 -111 -3 -86 -7
-108 -23 -126 -20 -22 -20 -22 0 -37 14 -10 39 -14 87 -11 78 4 100 18 75 46
-9 10 -17 27 -17 38 1 14 11 7 41 -28 l41 -48 74 0 c90 0 106 17 55 57 -17 13
-45 45 -62 69 -34 49 -30 67 16 78 30 8 33 31 6 46 -27 14 -106 13 -119 -2 -5
-7 -12 -22 -14 -33 -2 -11 -11 -21 -21 -23 -15 -3 -17 6 -17 82 l0 86 -37 -1
c-21 0 -57 -9 -80 -19z"/>
<path d="M7662 7139 c-66 -42 -79 -71 -34 -77 21 -3 22 -8 22 -78 0 -66 3 -78
25 -99 46 -47 191 -24 183 28 -2 18 -10 22 -38 22 l-35 0 -3 61 -3 62 47 4
c67 5 75 -3 159 -152 39 -68 72 -68 109 0 15 27 31 52 36 55 5 3 19 -9 30 -27
37 -61 53 -78 76 -78 24 0 38 19 94 127 17 35 43 71 58 81 38 29 24 52 -32 52
-67 0 -77 -7 -71 -44 4 -19 1 -38 -8 -50 -14 -19 -15 -19 -32 7 -14 22 -15 30
-5 42 10 12 10 18 0 30 -18 21 -128 20 -159 -1 l-22 -16 20 -22 c18 -19 19
-25 8 -40 -12 -17 -14 -17 -31 8 -9 15 -14 35 -11 46 4 13 0 22 -14 29 -30 17
-123 13 -149 -5 -20 -14 -22 -14 -22 0 0 12 -10 16 -40 16 -38 0 -40 2 -40 30
0 26 -4 30 -27 30 -16 0 -56 -19 -91 -41z"/>
<path d="M7402 7101 c-81 -52 -94 -147 -28 -208 32 -30 41 -33 98 -33 90 0
153 41 117 77 -8 8 -18 7 -37 -3 -35 -18 -52 -18 -80 2 -43 30 -28 43 56 46
75 3 77 4 80 30 2 19 -6 37 -31 64 -29 32 -41 38 -88 41 -42 3 -61 0 -87 -16z
m96 -54 c4 -21 -25 -34 -40 -19 -8 8 -8 16 2 27 16 19 34 15 38 -8z"/>
<path d="M8490 7097 c-72 -38 -99 -111 -65 -177 21 -42 63 -60 135 -60 66 0
90 9 133 48 23 22 27 34 27 82 0 49 -4 60 -27 81 -60 54 -132 63 -203 26z
m102 -94 c18 -54 16 -83 -7 -83 -23 0 -36 27 -42 85 -6 52 -4 57 13 53 13 -2
25 -20 36 -55z"/>
<path d="M8791 7106 c-46 -16 -62 -43 -38 -60 26 -20 24 -103 -4 -133 -18 -19
-20 -25 -9 -38 10 -13 31 -15 104 -13 77 3 91 6 94 20 2 11 -6 22 -20 28 -18
9 -23 19 -22 48 1 62 1 62 34 46 26 -13 32 -13 60 1 24 13 30 22 30 49 0 61
-54 85 -104 45 l-26 -20 0 20 c0 17 -6 21 -32 20 -18 0 -48 -6 -67 -13z"/>
</g>
</svg>
